<svg width="29" height="42" viewBox="0 0 29 42" fill="none" xmlns="http://www.w3.org/2000/svg">
<path d="M18.4747 18.1201C15.1266 18.1201 12.7323 19.3627 11.0327 20.45V15.6709L11.1551 9.88207C11.158 9.85156 11.1608 9.81827 11.1608 9.78776C11.2804 7.64366 9.54371 5.80189 7.34015 5.72977C6.61986 5.70481 5.90811 5.82408 5.13373 6.13197C4.43338 6.41212 3.74441 6.83095 3.38853 7.46336C2.49173 9.0444 0.447599 8.67549 0.15436 9.23856C-0.136033 9.80163 -0.295464 12.6808 2.35508 12.4616C5.00562 12.2425 5.9679 11.6795 6.08747 12.7723V38.8427H4.3138C3.77003 38.8427 3.33159 39.2699 3.33159 39.7996V41.0423C3.33159 41.5721 3.77003 41.9992 4.3138 41.9992H8.01488H9.10528H11.0298V40.1408C11.0298 40.1353 11.0327 40.1297 11.0327 40.1214V27.512C11.0327 25.9004 11.9466 24.3971 13.4327 23.6981C14.7366 23.0879 16.2512 22.6274 17.837 22.6274C21.6662 22.6274 24.0548 25.0101 24.0548 29.3593V38.8399H22.284C21.7402 38.8399 21.3018 39.2671 21.3018 39.7969V41.0395C21.3018 41.5693 21.743 41.9965 22.284 41.9965H25.9822H27.0726H29V40.1186V38.8372V29.6145C29 19.7788 21.9822 18.1201 18.4747 18.1201Z" fill="#100F20"/>
<path d="M10.633 2.59622H9.27495V1.14833C9.27495 0.513142 8.74826 0 8.0963 0H6.26853C5.61658 0 5.08988 0.513142 5.08988 1.14833V2.59622H3.72903C3.36746 2.59622 3.07422 2.88192 3.07422 3.23418V3.42834C3.07422 3.78061 3.36746 4.06908 3.72903 4.06908H10.633C10.9945 4.06908 11.2906 3.78338 11.2906 3.42834V3.23418C11.2906 2.88192 10.9945 2.59622 10.633 2.59622Z" fill="#100F20"/>
</svg>
