<svg width="24" height="24" viewBox="0 0 24 24" fill="none" xmlns="http://www.w3.org/2000/svg">
<g clip-path="url(#clip0_1706_1082)">
<path d="M18.503 10.7542C14.9599 8.64957 9.111 8.45328 5.72597 9.48377C5.18087 9.64734 4.60852 9.34201 4.445 8.79678C4.28147 8.25155 4.58672 7.67906 5.13181 7.51549C9.01834 6.33779 15.4722 6.56134 19.555 8.98761C20.0456 9.27658 20.2037 9.90905 19.9148 10.3998C19.6204 10.8796 18.9881 11.0431 18.503 10.7542ZM18.3885 13.8729C18.1378 14.2763 17.6145 14.4017 17.2111 14.1564C14.2567 12.3408 9.74876 11.8119 6.25471 12.8751C5.80228 13.0114 5.3226 12.7551 5.18632 12.3026C5.05005 11.8501 5.30624 11.3703 5.75867 11.234C9.75421 10.0235 14.72 10.6069 18.1105 12.6952C18.5084 12.9405 18.6338 13.4694 18.3885 13.8729ZM17.0421 16.8662C16.8459 17.1879 16.4207 17.2915 16.0991 17.0952C13.5154 15.514 10.2666 15.1596 6.44004 16.032C6.06938 16.1192 5.70416 15.8848 5.61695 15.514C5.52973 15.1432 5.76412 14.7779 6.13479 14.6907C10.3266 13.7311 13.9187 14.1455 16.8186 15.9175C17.1348 16.1192 17.2384 16.5445 17.0421 16.8662ZM12 1C5.9222 1 1 5.92342 1 11.9973C1 18.0711 5.9222 23 12 23C18.0723 23 23 18.0766 23 11.9973C22.9946 5.92342 18.0723 1 12 1Z" fill="white"/>
</g>
<defs>
<clipPath id="clip0_1706_1082">
<rect width="22" height="22" fill="white" transform="translate(1 1)"/>
</clipPath>
</defs>
</svg>
