<svg width="310" height="48" viewBox="0 0 310 48" fill="none" xmlns="http://www.w3.org/2000/svg">
<path d="M0.5 0.5H309.5V47.5H0.5V0.5Z" stroke="black"/>
<path d="M101.416 17.268H103.292V30.274H101.416V17.268ZM102.872 22.07H105.168V23.596H102.872V22.07ZM93.6324 25.612H94.7244C96.9084 25.612 98.6304 25.542 100.534 25.206L100.716 26.746C98.7564 27.096 96.9784 27.152 94.7244 27.152H93.6324V25.612ZM93.6324 18.472H99.6804V19.97H95.4804V26.354H93.6324V18.472ZM106.007 24.282H117.753V25.766H106.007V24.282ZM107.477 28.538H116.619V30.022H107.477V28.538ZM107.477 26.48H109.339V29.182H107.477V26.48ZM107.449 17.576H116.325V21.174H109.311V22.518H107.463V19.858H114.491V18.99H107.449V17.576ZM107.463 22.084H116.577V23.484H107.463V22.084ZM126.986 25.584H128.834V30.26H126.986V25.584ZM122.072 25.038H133.79V26.55H122.072V25.038ZM126.972 19.606H128.61V19.914C128.61 22.084 126.734 23.974 123.304 24.38L122.66 22.924C125.586 22.588 126.972 21.118 126.972 19.914V19.606ZM127.21 19.606H128.848V19.914C128.848 21.09 130.248 22.588 133.16 22.924L132.502 24.38C129.086 23.988 127.21 22.028 127.21 19.914V19.606ZM123.122 18.766H132.726V20.236H123.122V18.766ZM126.986 17.31H128.834V19.27H126.986V17.31ZM137.849 19.816H139.361V20.32C139.361 22.686 138.213 24.8 135.749 25.57L134.853 24.114C136.953 23.456 137.849 21.888 137.849 20.32V19.816ZM138.185 19.816H139.711V20.32C139.711 21.776 140.621 23.274 142.721 23.904L141.825 25.36C139.375 24.632 138.185 22.588 138.185 20.32V19.816ZM135.301 18.808H142.259V20.264H135.301V18.808ZM137.849 17.38H139.711V19.354H137.849V17.38ZM141.853 21.048H144.863V22.574H141.853V21.048ZM143.925 17.296H145.787V26.886H143.925V17.296ZM137.233 28.538H146.081V30.022H137.233V28.538ZM137.233 26.088H139.095V29.518H137.233V26.088ZM153.83 17.982H155.356V19.13C155.356 21.706 154.236 23.974 151.772 24.828L150.778 23.358C152.948 22.63 153.83 20.894 153.83 19.13V17.982ZM154.208 17.982H155.72V19.312C155.72 20.866 156.588 22.378 158.618 23.008L157.652 24.45C155.314 23.666 154.208 21.65 154.208 19.312V17.982ZM159.332 17.282H161.194V24.94H159.332V17.282ZM160.676 20.278H162.916V21.818H160.676V20.278ZM156.966 25.234C159.654 25.234 161.348 26.172 161.348 27.74C161.348 29.322 159.654 30.246 156.966 30.246C154.264 30.246 152.57 29.322 152.57 27.74C152.57 26.172 154.264 25.234 156.966 25.234ZM156.966 26.676C155.314 26.676 154.418 27.026 154.418 27.74C154.418 28.468 155.314 28.804 156.966 28.804C158.618 28.804 159.5 28.468 159.5 27.74C159.5 27.026 158.618 26.676 156.966 26.676ZM168.795 24.408H170.657V26.382H168.795V24.408ZM163.867 23.344H175.585V24.814H163.867V23.344ZM164.889 17.632H174.549V19.116H164.889V17.632ZM164.987 21.062H174.451V22.546H164.987V21.062ZM166.541 18.178H168.403V22.028H166.541V18.178ZM171.035 18.178H172.897V22.028H171.035V18.178ZM165.225 25.892H174.185V30.106H165.225V25.892ZM172.365 27.334H167.059V28.636H172.365V27.334ZM180.533 25.626H181.583C183.879 25.626 185.377 25.57 187.057 25.262L187.239 26.76C185.503 27.082 183.949 27.152 181.583 27.152H180.533V25.626ZM180.533 18.43H186.399V19.914H182.395V26.2H180.533V18.43ZM188.947 17.282H190.809V30.288H188.947V17.282ZM185.769 21.748H189.731V23.26H185.769V21.748ZM192.81 27.236H204.542V28.748H192.81V27.236ZM197.724 24.464H199.586V27.6H197.724V24.464ZM194.042 18.108H195.89V20.096H201.42V18.108H203.268V24.856H194.042V18.108ZM195.89 21.552V23.372H201.42V21.552H195.89ZM214.607 17.282H216.483V30.246H214.607V17.282ZM210.785 18.626H212.633C212.633 22.588 211.289 25.836 206.683 28.062L205.717 26.578C209.441 24.786 210.785 22.434 210.785 18.962V18.626ZM206.403 18.626H211.667V20.096H206.403V18.626Z" fill="black"/>
</svg>
