<svg width="310" height="48" viewBox="0 0 310 48" fill="none" xmlns="http://www.w3.org/2000/svg">
<path d="M0.5 0.5H309.5V47.5H0.5V0.5Z" stroke="black"/>
<path d="M82.6886 25.682V22.896H81.0086V25.682H82.6886ZM85.6006 22.028V17.534H87.3226V29.644H85.6006V23.512H84.3966V27.152H79.2726V18.472H81.0086V21.44H82.6886V18.486H84.3966V22.028H85.6006ZM88.2186 17.296H89.9686V30.19H88.2186V17.296ZM103.058 23.372L102.274 24.926C100.034 24.478 98.3815 23.232 97.5555 21.594C96.7295 23.232 95.0915 24.492 92.8515 24.926L92.0675 23.372C94.9655 22.882 96.5755 20.838 96.5755 18.99V18.066H98.5495V18.99C98.5495 20.88 100.146 22.882 103.058 23.372ZM91.7875 27.138H103.464V28.636H91.7875V27.138ZM115.096 23.96V25.416H106.038V18.248H114.998V19.732H107.914V21.09H114.704V22.518H107.914V23.96H115.096ZM104.666 27.222H116.342V28.72H104.666V27.222ZM128.319 23.022L127.353 24.45C125.995 24.002 125.057 23.134 124.511 22.042C123.951 23.302 122.957 24.296 121.487 24.814L120.521 23.358C122.677 22.644 123.545 20.922 123.545 19.172V18.01H125.421V19.326C125.421 20.88 126.289 22.392 128.319 23.022ZM126.653 28.776C128.291 28.776 129.173 28.44 129.173 27.712C129.173 26.998 128.291 26.662 126.653 26.662C125.001 26.662 124.119 26.998 124.119 27.712C124.119 28.44 125.001 28.776 126.653 28.776ZM126.653 25.234C129.327 25.234 131.007 26.158 131.007 27.712C131.007 29.28 129.327 30.204 126.653 30.204C123.965 30.204 122.285 29.28 122.285 27.712C122.285 26.158 123.965 25.234 126.653 25.234ZM130.867 20.306H132.575V21.832H130.867V24.94H129.019V17.324H130.867V20.306ZM140.736 21.076V19.13H138.09V21.076H140.736ZM136.256 21.076V19.13H134.618V17.66H144.208V19.13H142.57V21.076H144.11V22.546H134.702V21.076H136.256ZM142.038 28.608V27.306H136.76V28.608H142.038ZM145.244 24.814H140.344V25.864H143.858V30.05H134.954V25.864H138.496V24.814H133.596V23.344H145.244V24.814ZM156.563 20.642H158.579V17.31H160.427V26.718H158.579V22.14H156.563V20.642ZM157.417 23.61L156.521 25.052C155.107 24.59 154.155 23.666 153.595 22.504C153.021 23.778 152.013 24.8 150.515 25.304L149.577 23.834C151.691 23.148 152.615 21.454 152.615 19.83V19.648H150.081V18.178H157.011V19.648H154.505V19.816C154.505 21.342 155.387 22.924 157.417 23.61ZM153.777 28.51H160.721V29.98H151.929V25.934H153.777V28.51ZM166.53 20.95V21.216C166.53 23.162 167.188 25.136 169.008 26.102L168.014 27.474C166.88 26.872 166.138 25.85 165.676 24.618C165.242 25.962 164.486 27.11 163.324 27.782L162.288 26.396C164.122 25.318 164.78 23.204 164.78 21.216V20.95H162.764V19.466H164.78V17.73H166.53V19.466H168.504V20.95H166.53ZM169.232 22.182V17.52H170.954V29.616H169.232V23.68H167.762V22.182H169.232ZM171.836 17.296H173.586V30.19H171.836V17.296ZM189.651 21.468L188.951 22.91C186.795 22.574 185.227 21.594 184.415 20.292C183.603 21.608 182.021 22.602 179.851 22.952L179.165 21.496C182.007 21.104 183.449 19.508 183.449 18.052V17.646H185.353V18.052C185.353 19.466 186.809 21.076 189.651 21.468ZM181.769 26.214V28.51H188.951V29.98H179.921V26.214H181.769ZM178.563 23.652H190.253V25.108H185.493V27.306H183.645V25.108H178.563V23.652ZM195.642 19.326C194.704 19.326 194.032 19.774 194.032 20.586C194.032 21.37 194.704 21.818 195.642 21.818C196.594 21.818 197.252 21.37 197.252 20.586C197.252 19.774 196.594 19.326 195.642 19.326ZM195.642 23.33C193.696 23.33 192.254 22.182 192.254 20.586C192.254 18.962 193.696 17.828 195.642 17.828C197.588 17.828 199.016 18.962 199.016 20.586C199.016 22.182 197.588 23.33 195.642 23.33ZM199.674 23.652L199.786 24.996C198.75 25.206 197.672 25.332 196.622 25.43V29.812H194.774V25.542C193.668 25.584 192.618 25.598 191.708 25.598L191.498 24.086C193.752 24.086 196.944 24.058 199.674 23.652ZM200.402 17.31H202.25V30.19H200.402V17.31ZM210.572 21.566V23.372H216.088V21.566H210.572ZM214.254 27.208H219.182V28.706H207.506V27.208H212.406V24.842H208.738V18.108H210.572V20.11H216.088V18.108H217.908V24.842H214.254V27.208ZM221.099 18.64H227.287C227.287 22.588 225.957 25.808 221.379 28.02L220.413 26.564C223.703 24.982 225.131 22.966 225.397 20.11H221.099V18.64ZM229.261 17.296H231.123V30.19H229.261V17.296Z" fill="black"/>
</svg>
