<svg width="310" height="48" viewBox="0 0 310 48" fill="none" xmlns="http://www.w3.org/2000/svg">
<path d="M0.5 0.5H309.5V47.5H0.5V0.5Z" stroke="black"/>
<path d="M118.44 23.386V25.71C120.4 25.696 122.024 25.598 123.844 25.29L124.04 26.788C121.94 27.152 120.05 27.236 117.712 27.236H116.55V21.93H120.736V19.872H116.536V18.402H122.626V23.386H118.44ZM124.74 17.296H126.588V30.232H124.74V17.296ZM137.213 21.93V20.642H131.907V21.93H137.213ZM139.033 17.772V23.4H130.073V17.772H131.907V19.186H137.213V17.772H139.033ZM140.419 24.618V26.102H137.815V30.218H135.953V26.102H133.195V30.218H131.347V26.102H128.743V24.618H140.419ZM151.709 20.642H153.725V17.31H155.573V26.718H153.725V22.14H151.709V20.642ZM152.563 23.61L151.667 25.052C150.253 24.59 149.301 23.666 148.741 22.504C148.167 23.778 147.159 24.8 145.661 25.304L144.723 23.834C146.837 23.148 147.761 21.454 147.761 19.83V19.648H145.227V18.178H152.157V19.648H149.651V19.816C149.651 21.342 150.533 22.924 152.563 23.61ZM148.923 28.51H155.867V29.98H147.075V25.934H148.923V28.51ZM161.676 20.95V21.216C161.676 23.162 162.334 25.136 164.154 26.102L163.16 27.474C162.026 26.872 161.284 25.85 160.822 24.618C160.388 25.962 159.632 27.11 158.47 27.782L157.434 26.396C159.268 25.318 159.926 23.204 159.926 21.216V20.95H157.91V19.466H159.926V17.73H161.676V19.466H163.65V20.95H161.676ZM164.378 22.182V17.52H166.1V29.616H164.378V23.68H162.908V22.182H164.378ZM166.982 17.296H168.732V30.19H166.982V17.296ZM173.617 21.566V23.372H179.133V21.566H173.617ZM177.299 27.208H182.227V28.706H170.551V27.208H175.451V24.842H171.783V18.108H173.617V20.11H179.133V18.108H180.953V24.842H177.299V27.208ZM184.144 18.64H190.332C190.332 22.588 189.002 25.808 184.424 28.02L183.458 26.564C186.748 24.982 188.176 22.966 188.442 20.11H184.144V18.64ZM192.306 17.296H194.168V30.19H192.306V17.296Z" fill="black"/>
</svg>
