<svg width="112" height="20" viewBox="0 0 112 20" fill="none" xmlns="http://www.w3.org/2000/svg">
<path d="M86.6031 8.88963L81.6152 0.282227H78.0391L84.8034 12.0029V19.7099H88.4028V12.0029L95.175 0.282227H91.5756L86.6031 8.88963Z" fill="#FAF9F7"/>
<path d="M11.6825 19.7099H15.0104V0.282227H11.6825V8.36311H3.32788V0.282227H0V19.7099H3.32788V11.6367H11.6825V19.7099Z" fill="#FAF9F7"/>
<path d="M40.8103 0.282227V3.56342H49.6537L40.5078 19.7099H54.9752V16.4364H46.1706L55.2932 0.282227H40.8103Z" fill="#FAF9F7"/>
<path d="M29.9819 0.290039H29.9121H26.716H26.6385L19.1992 19.7177H22.403L24.0475 15.4522L24.257 14.9104H32.3789L32.5806 15.4522L34.2174 19.7101H37.4211L29.9819 0.290039ZM25.5214 11.6369L28.3141 4.41823L31.1067 11.6369H25.5214Z" fill="#FAF9F7"/>
<path d="M59.7478 0.282227V3.56342H68.5834L59.4375 19.7099H73.9049V16.4364H65.1081L74.2229 0.282227H59.7478Z" fill="#FAF9F7"/>
<path d="M107.757 9.04998L104.965 7.9359C103.32 7.32545 101.769 6.74552 101.769 5.21175C101.769 3.79245 103.025 2.90729 105.05 2.90729C106.671 2.90729 108.06 3.44143 109.433 4.57841L109.541 4.66997L111.419 2.54865L111.318 2.44182C109.689 0.892789 107.4 0 105.05 0C101.156 0 98.2157 2.31973 98.2157 5.38726C98.2157 7.67646 99.643 9.40099 102.459 10.5074L105.275 11.6444L105.36 11.6826C107.152 12.4151 108.44 12.9493 108.44 14.5517C108.44 16.116 107.028 17.0851 104.747 17.0851C102.893 17.0851 100.907 16.261 99.4258 14.8798L99.3172 14.7806L97.2383 17.0622L97.3469 17.1614C99.2397 18.9546 101.916 19.9924 104.685 19.9924C108.991 19.9924 111.993 17.6574 111.993 14.3151C112 11.1408 109.735 9.82831 107.757 9.04998Z" fill="#FAF9F7"/>
</svg>
