<svg width="9" height="14" viewBox="0 0 9 14" fill="none" xmlns="http://www.w3.org/2000/svg">
<path d="M5.73353 6.04035C4.69448 6.04035 3.95141 6.45457 3.42394 6.817V5.22395L3.46193 3.29435C3.46281 3.28418 3.4637 3.27308 3.4637 3.26291C3.50081 2.54821 2.96184 1.93429 2.27798 1.91025C2.05444 1.90193 1.83355 1.94169 1.59323 2.04431C1.37588 2.1377 1.16206 2.27731 1.05161 2.48811C0.773297 3.01512 0.13891 2.89216 0.0479047 3.07985C-0.0422171 3.26754 -0.0916956 4.22725 0.730886 4.15421C1.55347 4.08117 1.85211 3.89348 1.88922 4.25776V12.9479H1.33877C1.17001 12.9479 1.03394 13.0903 1.03394 13.2669V13.6811C1.03394 13.8577 1.17001 14.0001 1.33877 14.0001H2.48738H2.82578H3.42305V13.3806C3.42305 13.3787 3.42394 13.3769 3.42394 13.3741V9.17098C3.42394 8.6338 3.70756 8.13268 4.16877 7.89968C4.57343 7.69628 5.04348 7.5428 5.53561 7.5428C6.72398 7.5428 7.46528 8.33701 7.46528 9.78675V12.947H6.91571C6.74696 12.947 6.61089 13.0894 6.61089 13.266V13.6802C6.61089 13.8568 6.74784 13.9991 6.91571 13.9991H8.06344H8.40184H9V13.3732V12.946V9.87181C9 6.59325 6.82206 6.04035 5.73353 6.04035Z" fill="#100F20"/>
<path d="M3.29894 0.865408H2.87749V0.382776C2.87749 0.171047 2.71403 0 2.5117 0H1.94446C1.74213 0 1.57868 0.171047 1.57868 0.382776V0.865408H1.15634C1.04413 0.865408 0.953125 0.960639 0.953125 1.07806V1.14278C0.953125 1.2602 1.04413 1.35636 1.15634 1.35636H3.29894C3.41115 1.35636 3.50304 1.26113 3.50304 1.14278V1.07806C3.50304 0.960639 3.41115 0.865408 3.29894 0.865408Z" fill="#100F20"/>
</svg>
